<svg xmlns="http://www.w3.org/2000/svg" xmlns:xlink="http://www.w3.org/1999/xlink" width="52" height="52" viewBox="0 0 52 52" version="1.1">
    <title>Artboard</title>
    <g id="Artboard" stroke="none" stroke-width="1" fill="none" fill-rule="evenodd">
        <path d="M20.5287109,11.5634766 C16.4408203,12.3336589 13.5674479,15.2958984 11.9085937,20.4501953 C11.0791667,22.9977214 10.6644531,25.515625 10.6644531,28.0039062 C10.6644531,28.3001302 10.6792643,28.5519206 10.7088867,28.7592773 C10.7385091,28.9666341 10.7829427,29.4257812 10.8421875,30.1367188 L20.5287109,30.1367188 C20.5287109,34.3575267 20.5287109,37.9170234 20.5287109,40.815209 C20.5287109,43.7133945 20.5287109,46.6115801 20.5287109,49.5097656 L1.6,49.5097656 L1.6,31.6474609 C1.6,22.8792318 3.34772135,16.1253255 6.84316406,11.3857422 C10.3386068,6.64615885 14.9004557,3.92089844 20.5287109,3.20996094 L20.5287109,11.5634766 Z" id="Path" fill="#FFFFFF" fill-rule="nonzero"/>
        <path d="M50.4769531,11.5634766 C47.2184896,12.0966797 44.7450195,13.9332682 43.056543,17.0732422 C41.3680664,20.2132161 40.5238281,23.8271484 40.5238281,27.9150391 C40.5238281,28.2705078 40.5386393,28.6259766 40.5682617,28.9814453 C40.5978841,29.3369141 40.6719401,29.7220052 40.7904297,30.1367188 L50.4769531,30.1367188 L50.4769531,49.5097656 L31.459375,49.5097656 C31.459375,45.5305071 31.459375,42.5460631 31.459375,40.5564338 C31.459375,38.5766621 31.459375,35.6070044 31.459375,31.6474609 C31.459375,24.5973307 32.9404948,18.3025716 35.9027344,12.7631836 C38.864974,7.22379557 43.7230469,4.03938802 50.4769531,3.20996094 L50.4769531,11.5634766 Z" id="Path" fill="#FFFFFF" fill-rule="nonzero"/>
    </g>
</svg>